<svg width="24" height="24" viewBox="0 0 24 24" fill="none" xmlns="http://www.w3.org/2000/svg">
<path d="M20.347 12.3658C20.2791 12.2945 20.1936 12.2425 20.0991 12.2149C18.6264 11.337 16.8032 10.6956 14.78 10.3857C14.745 10.3772 14.7092 10.3719 14.6732 10.3698C13.7932 10.2411 12.905 10.1764 12.0155 10.1765C10.7417 10.1765 9.51612 10.3065 8.36544 10.5447C8.34487 10.5473 8.32561 10.5481 8.30504 10.5524C8.27814 10.5584 8.25335 10.5674 8.22724 10.574C3.54355 11.5846 0.160339 14.4127 0.160339 17.7371C0.160339 19.704 1.28597 20.9504 3.59946 21.547C5.47647 22.0304 8.00254 22.0689 11.1096 22.0689H12.9204C18.5512 22.0689 23.8686 22.0689 23.8686 17.7371C23.8681 15.638 22.5191 13.737 20.347 12.3658ZM12.9199 20.9267H11.1094C8.08403 20.9267 5.63128 20.8913 3.88482 20.4409C2.07506 19.9751 1.30232 19.166 1.30232 17.7373C1.30232 15.8118 2.72702 14.0827 4.97537 12.9054C4.24852 14.0025 3.85265 15.3787 3.91172 16.8709C3.91738 17.0184 3.97993 17.1579 4.08624 17.2602C4.19255 17.3626 4.33436 17.4198 4.48192 17.4198C4.48904 17.4198 4.49695 17.4198 4.50408 17.419C4.57905 17.4161 4.65273 17.3985 4.72089 17.3671C4.78905 17.3357 4.85035 17.2912 4.9013 17.2361C4.95225 17.181 4.99184 17.1164 5.0178 17.046C5.04377 16.9756 5.05561 16.9008 5.05265 16.8258C4.95296 14.2953 6.39744 12.1727 8.56482 11.6648C8.57089 11.6629 8.5759 11.6603 8.5817 11.659C9.53604 11.4661 10.5051 11.355 11.4783 11.3269C9.80966 12.4396 8.71621 14.4163 8.71621 16.7222C8.72072 16.8707 8.78288 17.0116 8.88952 17.1151C8.99616 17.2185 9.13889 17.2764 9.28746 17.2764C9.43603 17.2764 9.57876 17.2185 9.6854 17.1151C9.79204 17.0116 9.8542 16.8707 9.85871 16.7222C9.85871 13.8082 11.9454 11.5258 14.6144 11.5108C15.9254 11.7078 17.1402 12.0501 18.2107 12.5072C16.2124 13.258 14.7753 15.2695 14.7753 17.6337C14.7753 17.7851 14.8355 17.9304 14.9426 18.0375C15.0497 18.1446 15.1949 18.2048 15.3464 18.2048C15.4979 18.2048 15.6431 18.1446 15.7502 18.0375C15.8574 17.9304 15.9175 17.7851 15.9175 17.6337C15.9175 15.3088 17.6484 13.4131 19.8021 13.3379C21.6121 14.4876 22.7251 16.0349 22.7251 17.7376C22.7259 20.712 19.0209 20.9267 12.9199 20.9267ZM7.86539 9.51666C7.97696 9.62822 8.12359 9.68387 8.2697 9.68387C8.41555 9.68387 8.56166 9.62822 8.67322 9.51666C9.74056 8.4509 9.73977 6.71261 8.6719 5.64105C8.67051 5.64053 8.66938 5.63949 8.66873 5.63815C8.66742 5.63762 8.66663 5.63631 8.66583 5.63551C8.04368 5.01336 8.04421 4.00035 8.66663 3.37661C8.72058 3.32373 8.7635 3.26067 8.79292 3.19109C8.82234 3.12151 8.83766 3.04678 8.838 2.97123C8.83834 2.89569 8.8237 2.82082 8.79491 2.75098C8.76612 2.68113 8.72377 2.61769 8.67029 2.56432C8.61682 2.51095 8.5533 2.46872 8.48339 2.44007C8.41349 2.41142 8.3386 2.39692 8.26305 2.39741C8.18751 2.3979 8.11281 2.41337 8.04329 2.44292C7.97376 2.47248 7.91079 2.51553 7.85801 2.56958C6.79093 3.63877 6.79093 5.37653 7.85854 6.44387C7.85907 6.44387 7.85986 6.44439 7.85986 6.44519L7.86197 6.4465C7.86197 6.4465 7.86197 6.44703 7.86276 6.44703C8.48623 7.07288 8.48755 8.08694 7.86592 8.70831C7.75883 8.81552 7.69864 8.96084 7.69854 9.11237C7.69844 9.26391 7.75845 9.4093 7.86539 9.51666ZM11.6155 9.51666C11.727 9.62822 11.8726 9.68387 12.0187 9.68387C12.1653 9.68387 12.3112 9.62822 12.4222 9.51666C13.4761 8.46409 13.4867 6.7585 12.4605 5.6851C12.4483 5.67025 12.4355 5.65599 12.422 5.64237C12.4212 5.64184 12.4212 5.64105 12.4206 5.64105C12.4193 5.63894 12.418 5.63762 12.4159 5.63551C12.2671 5.48774 12.1491 5.31189 12.0688 5.11816C11.9885 4.92444 11.9474 4.7167 11.948 4.50699C11.948 4.08105 12.1142 3.67938 12.4167 3.37688C12.4697 3.32382 12.5118 3.26083 12.5405 3.19151C12.5692 3.12219 12.584 3.0479 12.584 2.97287C12.5839 2.89785 12.5692 2.82356 12.5404 2.75425C12.5117 2.68494 12.4696 2.62196 12.4166 2.56892C12.3635 2.51588 12.3005 2.47381 12.2312 2.44511C12.1619 2.41641 12.0876 2.40164 12.0126 2.40165C11.9375 2.40167 11.8632 2.41646 11.7939 2.44518C11.7246 2.4739 11.6616 2.51599 11.6086 2.56905C11.3532 2.82295 11.1507 3.12498 11.0128 3.45768C10.8749 3.79037 10.8043 4.14711 10.8053 4.50725C10.8053 5.23279 11.0856 5.91534 11.5957 6.43147C11.5983 6.43411 11.6017 6.43622 11.6041 6.43859C11.607 6.44157 11.6096 6.44484 11.6118 6.44835C12.236 7.07288 12.2374 8.08747 11.6152 8.7091C11.5621 8.7621 11.52 8.82505 11.4913 8.89435C11.4626 8.96364 11.4478 9.03792 11.4478 9.11293C11.4479 9.18794 11.4627 9.26221 11.4914 9.33149C11.5202 9.40076 11.5624 9.46369 11.6155 9.51666ZM15.3634 9.51666C15.475 9.62822 15.6216 9.68387 15.7677 9.68387C15.9138 9.68387 16.0597 9.62822 16.1712 9.51666C17.2309 8.45907 17.237 6.73793 16.1913 5.66532C16.1907 5.66375 16.1898 5.66231 16.1886 5.6611C16.1813 5.65213 16.1728 5.64343 16.1654 5.63551C16.0166 5.48774 15.8985 5.31191 15.8181 5.1182C15.7376 4.92448 15.6964 4.71674 15.6968 4.50699C15.6964 4.297 15.7376 4.08903 15.8181 3.89506C15.8985 3.7011 16.0166 3.52498 16.1654 3.37688C16.2185 3.32387 16.2607 3.26091 16.2894 3.1916C16.3182 3.12229 16.3329 3.048 16.3329 2.97297C16.3329 2.89793 16.3182 2.82364 16.2894 2.75433C16.2607 2.68502 16.2185 2.62206 16.1654 2.56905C16.0582 2.46207 15.913 2.40198 15.7615 2.40198C15.6101 2.40198 15.4648 2.46207 15.3576 2.56905C15.1024 2.82306 14.9 3.12513 14.7621 3.4578C14.6243 3.79047 14.5537 4.14716 14.5545 4.50725C14.5545 5.23806 14.8391 5.92483 15.3365 6.42198C15.3415 6.42752 15.3471 6.43094 15.3515 6.43648C15.356 6.44044 15.3576 6.44413 15.3616 6.44835C15.9848 7.07288 15.9861 8.08747 15.3642 8.7091C15.2571 8.81614 15.1969 8.96131 15.1968 9.11271C15.1966 9.26412 15.2566 9.4094 15.3634 9.51666Z" fill="black"/>
</svg>
