<svg width="24" height="26" viewBox="0 0 24 26" fill="none" xmlns="http://www.w3.org/2000/svg">
<path d="M7.20411 12.1554C7.20453 12.0858 7.18426 12.0176 7.14589 11.9595C7.10751 11.9014 7.05275 11.856 6.98855 11.8291C6.92435 11.8021 6.85359 11.7949 6.78525 11.8082C6.71692 11.8215 6.65408 11.8548 6.6047 11.9039C6.55532 11.953 6.52162 12.0156 6.50789 12.0839C6.49415 12.1522 6.50099 12.223 6.52754 12.2873C6.55408 12.3517 6.59914 12.4067 6.657 12.4454C6.71486 12.4842 6.78292 12.5048 6.85254 12.5048C6.9455 12.5051 7.03477 12.4685 7.1007 12.4029C7.16663 12.3374 7.20383 12.2483 7.20411 12.1554ZM7.04004 14.9743C6.97102 14.9747 6.90366 14.9956 6.84647 15.0342C6.78928 15.0729 6.74481 15.1276 6.71869 15.1915C6.69256 15.2554 6.68594 15.3256 6.69966 15.3932C6.71338 15.4609 6.74683 15.523 6.79578 15.5716C6.84474 15.6203 6.90701 15.6534 6.97474 15.6667C7.04247 15.68 7.11263 15.6729 7.17636 15.6464C7.2401 15.6199 7.29455 15.5751 7.33286 15.5177C7.37116 15.4603 7.39161 15.3928 7.39161 15.3238C7.39133 15.2308 7.35413 15.1418 7.2882 15.0762C7.22227 15.0107 7.13301 14.974 7.04004 14.9743ZM7.18067 8.63754C7.11164 8.63795 7.04429 8.6588 6.9871 8.69745C6.9299 8.7361 6.88544 8.79082 6.85931 8.85471C6.83319 8.91861 6.82656 8.9888 6.84029 9.05645C6.85401 9.1241 6.88745 9.18617 6.93641 9.23484C6.98537 9.2835 7.04764 9.31657 7.11537 9.32989C7.1831 9.3432 7.25326 9.33616 7.31699 9.30965C7.38072 9.28313 7.43518 9.23834 7.47348 9.18092C7.51179 9.1235 7.53223 9.05602 7.53223 8.98699C7.53195 8.89403 7.49475 8.80499 7.42882 8.73945C7.36289 8.67392 7.27363 8.63726 7.18067 8.63753V8.63754ZM10.4854 5.58563C10.4849 5.65525 10.5052 5.72343 10.5436 5.78152C10.582 5.83962 10.6367 5.88501 10.7009 5.91194C10.7651 5.93887 10.8359 5.94614 10.9042 5.93281C10.9725 5.91948 11.0354 5.88617 11.0848 5.83708C11.1341 5.788 11.1678 5.72536 11.1816 5.65711C11.1953 5.58885 11.1885 5.51805 11.1619 5.45369C11.1354 5.38933 11.0903 5.33429 11.0325 5.29557C10.9746 5.25685 10.9065 5.23617 10.8369 5.23617C10.744 5.2359 10.6547 5.27256 10.5888 5.33809C10.5228 5.40363 10.4856 5.49267 10.4854 5.58563ZM8.72754 16.3721C8.79657 16.3717 8.86393 16.3509 8.92112 16.3122C8.97831 16.2736 9.02277 16.2188 9.0489 16.155C9.07503 16.0911 9.08165 16.0209 9.06793 15.9532C9.05421 15.8856 9.02076 15.8235 8.9718 15.7748C8.92285 15.7262 8.86058 15.6931 8.79284 15.6798C8.72511 15.6665 8.65496 15.6735 8.59122 15.7C8.52749 15.7265 8.47304 15.7713 8.43473 15.8287C8.39642 15.8862 8.37598 15.9537 8.37598 16.0227C8.37626 16.1156 8.41346 16.2047 8.47939 16.2702C8.54532 16.3358 8.63458 16.3724 8.72754 16.3721ZM8.89161 18.8649C8.89202 18.7953 8.87176 18.7271 8.83339 18.669C8.79501 18.6109 8.74025 18.5655 8.67605 18.5386C8.61184 18.5117 8.54109 18.5044 8.47275 18.5177C8.40442 18.5311 8.34157 18.5644 8.2922 18.6135C8.24282 18.6625 8.20912 18.7252 8.19539 18.7934C8.18165 18.8617 8.18849 18.9325 8.21503 18.9969C8.24158 19.0612 8.28664 19.1162 8.3445 19.155C8.40236 19.1937 8.47042 19.2144 8.54004 19.2144C8.63301 19.2146 8.72227 19.178 8.7882 19.1124C8.85413 19.0469 8.89133 18.9579 8.89161 18.8649V18.8649ZM11.0479 14.6249C11.0483 14.5552 11.028 14.4871 10.9896 14.429C10.9513 14.3709 10.8965 14.3255 10.8323 14.2985C10.7681 14.2716 10.6973 14.2643 10.629 14.2777C10.5607 14.291 10.4978 14.3243 10.4484 14.3734C10.3991 14.4225 10.3654 14.4851 10.3516 14.5534C10.3379 14.6216 10.3447 14.6924 10.3713 14.7568C10.3978 14.8212 10.4429 14.8762 10.5008 14.9149C10.5586 14.9536 10.6267 14.9743 10.6963 14.9743C10.7893 14.9746 10.8785 14.9379 10.9444 14.8724C11.0104 14.8069 11.0476 14.7178 11.0479 14.6249ZM10.2041 17.6069C10.2037 17.6765 10.224 17.7447 10.2623 17.8028C10.3007 17.8609 10.3555 17.9063 10.4197 17.9332C10.4839 17.9601 10.5546 17.9674 10.623 17.9541C10.6913 17.9407 10.7541 17.9074 10.8035 17.8583C10.8529 17.8092 10.8866 17.7466 10.9003 17.6784C10.9141 17.6101 10.9072 17.5393 10.8807 17.4749C10.8541 17.4106 10.8091 17.3555 10.7512 17.3168C10.6933 17.2781 10.6253 17.2574 10.5557 17.2574C10.4627 17.2571 10.3734 17.2938 10.3075 17.3593C10.2416 17.4249 10.2044 17.5139 10.2041 17.6069V17.6069ZM8.86817 20.752C8.79914 20.7524 8.73179 20.7732 8.67459 20.8119C8.6174 20.8505 8.57294 20.9053 8.54681 20.9691C8.52068 21.033 8.51406 21.1032 8.52778 21.1709C8.5415 21.2385 8.57495 21.3006 8.62391 21.3493C8.67286 21.3979 8.73513 21.431 8.80287 21.4443C8.8706 21.4576 8.94075 21.4506 9.00449 21.4241C9.06822 21.3976 9.12268 21.3528 9.16098 21.2954C9.19929 21.2379 9.21973 21.1705 9.21973 21.1014C9.21945 21.0085 9.18225 20.9194 9.11632 20.8539C9.05039 20.7884 8.96113 20.7517 8.86817 20.752ZM9.21134 6.40595C9.25126 6.38317 9.28628 6.35273 9.31438 6.31636C9.34248 6.27999 9.3631 6.23843 9.37506 6.19405C9.38702 6.14968 9.39008 6.10338 9.38407 6.05781C9.37806 6.01225 9.36308 5.96833 9.34002 5.92858C9.29305 5.8482 9.21621 5.78964 9.12625 5.76568C9.03629 5.74172 8.9405 5.7543 8.85978 5.80067C8.81986 5.82344 8.78484 5.85389 8.75674 5.89026C8.72864 5.92662 8.70801 5.96819 8.69605 6.01256C8.68409 6.05694 8.68103 6.10324 8.68704 6.1488C8.69306 6.19437 8.70803 6.23829 8.7311 6.27804C8.77806 6.35842 8.8549 6.41698 8.94487 6.44094C9.03483 6.4649 9.13062 6.45232 9.21134 6.40595H9.21134ZM10.5557 10.6877C10.4866 10.6881 10.4193 10.7089 10.3621 10.7476C10.3049 10.7862 10.2604 10.841 10.2343 10.9048C10.2082 10.9687 10.2016 11.0389 10.2153 11.1066C10.229 11.1742 10.2625 11.2363 10.3114 11.285C10.3604 11.3336 10.4226 11.3667 10.4904 11.38C10.5581 11.3933 10.6283 11.3863 10.692 11.3598C10.7557 11.3333 10.8102 11.2885 10.8485 11.2311C10.8868 11.1736 10.9072 11.1061 10.9072 11.0371C10.907 10.9442 10.8698 10.8551 10.8038 10.7896C10.7379 10.7241 10.6486 10.6874 10.5557 10.6877ZM12.8994 4.58386C12.9684 4.58344 13.0358 4.56259 13.093 4.52394C13.1502 4.48529 13.1946 4.43057 13.2208 4.36668C13.2469 4.30279 13.2535 4.23259 13.2398 4.16494C13.2261 4.09729 13.1926 4.03522 13.1437 3.98656C13.0947 3.93789 13.0325 3.90482 12.9647 3.8915C12.897 3.87819 12.8268 3.88523 12.7631 3.91175C12.6994 3.93826 12.6449 3.98305 12.6066 4.04047C12.5683 4.0979 12.5479 4.16538 12.5479 4.2344C12.5481 4.32736 12.5853 4.41641 12.6513 4.48194C12.7172 4.54748 12.8065 4.58414 12.8994 4.58386V4.58386ZM14.0672 22.1146L13.5701 22.6088C13.504 22.6746 13.4667 22.7639 13.4664 22.8571C13.4662 22.9503 13.503 23.0398 13.5687 23.1059C13.6344 23.172 13.7237 23.2093 13.8169 23.2096C13.9101 23.2099 13.9996 23.1732 14.0658 23.1075L14.5629 22.6133C14.629 22.5475 14.6663 22.4582 14.6665 22.365C14.6668 22.2718 14.63 22.1823 14.5643 22.1162C14.4986 22.0501 14.4093 22.0128 14.3161 22.0125C14.2229 22.0122 14.1334 22.0489 14.0672 22.1146ZM16.4191 22.1146C16.353 22.0489 16.2634 22.0122 16.1702 22.0125C16.077 22.0128 15.9877 22.0501 15.922 22.1162C15.8563 22.1823 15.8195 22.2718 15.8198 22.365C15.82 22.4582 15.8573 22.5475 15.9234 22.6133L16.4206 23.1075C16.4533 23.1401 16.4921 23.1659 16.5349 23.1834C16.5776 23.201 16.6233 23.21 16.6695 23.2098C16.7157 23.2097 16.7614 23.2005 16.804 23.1827C16.8466 23.1649 16.8853 23.1389 16.9179 23.1061C16.9504 23.0734 16.9762 23.0345 16.9938 22.9918C17.0113 22.9491 17.0203 22.9033 17.0201 22.8571C17.02 22.8109 17.0107 22.7652 16.9929 22.7226C16.9751 22.68 16.9491 22.6414 16.9163 22.6088L16.4191 22.1146ZM14.5459 20.8405L13.937 20.4911C13.897 20.4681 13.8528 20.4532 13.807 20.4472C13.7612 20.4413 13.7147 20.4444 13.6701 20.4565C13.6255 20.4686 13.5837 20.4893 13.5472 20.5175C13.5106 20.5457 13.4799 20.5808 13.4569 20.6209C13.4339 20.6609 13.4191 20.7051 13.4132 20.7509C13.4073 20.7968 13.4104 20.8433 13.4225 20.8879C13.4346 20.9324 13.4554 20.9742 13.4836 21.0108C13.5118 21.0473 13.547 21.0779 13.5871 21.1009L14.196 21.4504C14.236 21.4734 14.2802 21.4883 14.326 21.4942C14.3718 21.5002 14.4183 21.497 14.4629 21.4849C14.5075 21.4729 14.5493 21.4522 14.5858 21.424C14.6224 21.3958 14.6531 21.3606 14.6761 21.3206C14.6991 21.2805 14.7139 21.2363 14.7198 21.1905C14.7257 21.1447 14.7226 21.0982 14.7105 21.0536C14.6984 21.009 14.6776 20.9672 14.6494 20.9307C14.6212 20.8941 14.586 20.8635 14.5459 20.8405ZM15.2432 19.0863C15.1499 19.0863 15.0605 19.1234 14.9946 19.1893C14.9287 19.2552 14.8916 19.3447 14.8916 19.4379V20.1368C14.8916 20.23 14.9287 20.3195 14.9946 20.3854C15.0605 20.4513 15.1499 20.4884 15.2432 20.4884C15.3364 20.4884 15.4258 20.4513 15.4918 20.3854C15.5577 20.3195 15.5947 20.23 15.5947 20.1368V19.4379C15.5947 19.3447 15.5577 19.2552 15.4918 19.1893C15.4258 19.1234 15.3364 19.0863 15.2432 19.0863ZM15.2432 17.7678C14.5397 17.7671 13.8511 17.9711 13.2616 18.355C11.9394 15.0694 11.8897 11.3905 13.1383 8.19234C13.297 7.78603 13.5403 7.35658 13.798 6.90193C14.4651 5.72467 15.2212 4.39036 14.6517 3.0398C14.3185 2.24881 13.6379 1.60194 12.7843 1.26505C12.2859 1.07197 11.7539 0.980335 11.2197 0.995517C8.27739 1.07205 7.08569 4.3119 6.29715 6.45572C5.46821 8.73571 5.06287 11.148 5.10111 13.5737C5.13949 16.0277 5.64092 18.4744 6.55123 20.6492C6.99414 21.7071 7.51368 22.5821 8.09547 23.2502C8.6461 23.8821 9.25616 24.3303 9.90877 24.5824C10.4078 24.7764 10.9383 24.8767 11.4737 24.8785C12.127 24.8785 12.7527 24.7223 13.2763 24.4163C13.8627 24.7942 14.5456 24.9948 15.2432 24.9941C17.2463 24.9941 18.876 23.3733 18.876 21.381C18.876 19.3887 17.2463 17.7678 15.2432 17.7678ZM10.162 23.9265C9.61726 23.716 9.10031 23.3331 8.62563 22.7883C8.09334 22.1772 7.61363 21.3661 7.19981 20.3777C5.41529 16.1143 5.32678 11.1285 6.95704 6.6985C7.72324 4.61542 8.7726 1.76255 11.2379 1.69841C11.6777 1.68544 12.1157 1.76047 12.5261 1.91908C13.2049 2.18696 13.7435 2.69494 14.0038 3.31285C14.4389 4.34474 13.8021 5.46851 13.1862 6.55528C12.9158 7.0325 12.6604 7.48326 12.4833 7.93659C11.7892 9.71859 11.4657 11.6235 11.5328 13.5347C11.5916 15.3505 11.9838 17.1399 12.6899 18.8137C12.3493 19.1472 12.0784 19.545 11.8931 19.9841C11.7078 20.4233 11.6117 20.8949 11.6104 21.3715C11.6091 21.8481 11.7026 22.3202 11.8856 22.7603C12.0685 23.2005 12.3372 23.5998 12.676 23.935C11.9505 24.257 11.0279 24.2607 10.162 23.9265ZM15.2432 24.291C13.6278 24.291 12.3135 22.9856 12.3135 21.381C12.3135 19.7764 13.6278 18.471 15.2432 18.471C16.8586 18.471 18.1729 19.7764 18.1729 21.381C18.1729 22.9856 16.8586 24.291 15.2432 24.291H15.2432ZM16.5493 20.4911L15.9404 20.8405C15.9003 20.8635 15.8652 20.8941 15.8369 20.9307C15.8087 20.9672 15.788 21.009 15.7759 21.0536C15.7638 21.0982 15.7606 21.1447 15.7665 21.1905C15.7724 21.2363 15.7873 21.2805 15.8103 21.3206C15.8333 21.3606 15.8639 21.3958 15.9005 21.424C15.9371 21.4522 15.9788 21.4729 16.0234 21.4849C16.068 21.497 16.1145 21.5002 16.1603 21.4942C16.2062 21.4883 16.2503 21.4734 16.2904 21.4504L16.8993 21.1009C16.9394 21.0779 16.9745 21.0473 17.0027 21.0108C17.031 20.9742 17.0517 20.9324 17.0638 20.8879C17.0759 20.8433 17.0791 20.7968 17.0732 20.7509C17.0673 20.7051 17.0524 20.6609 17.0294 20.6209C17.0064 20.5808 16.9758 20.5457 16.9392 20.5175C16.9026 20.4893 16.8608 20.4686 16.8162 20.4565C16.7717 20.4444 16.7251 20.4413 16.6793 20.4472C16.6335 20.4532 16.5893 20.4681 16.5493 20.4911ZM10.8838 22.3362C10.8148 22.3366 10.7474 22.3574 10.6902 22.3961C10.633 22.4347 10.5886 22.4895 10.5624 22.5533C10.5363 22.6172 10.5297 22.6874 10.5434 22.7551C10.5571 22.8227 10.5906 22.8848 10.6395 22.9335C10.6885 22.9821 10.7508 23.0152 10.8185 23.0285C10.8862 23.0418 10.9564 23.0348 11.0201 23.0083C11.0838 22.9818 11.1383 22.937 11.1766 22.8795C11.2149 22.8221 11.2354 22.7546 11.2354 22.6856C11.2351 22.5927 11.1979 22.5036 11.1319 22.4381C11.066 22.3725 10.9768 22.3359 10.8838 22.3362H10.8838ZM10.3213 3.4656C10.3903 3.46519 10.4577 3.44434 10.5149 3.40569C10.5721 3.36704 10.6165 3.31231 10.6427 3.24842C10.6688 3.18453 10.6754 3.11433 10.6617 3.04668C10.648 2.97903 10.6145 2.91696 10.5656 2.8683C10.5166 2.81964 10.4543 2.78656 10.3866 2.77325C10.3189 2.75993 10.2487 2.76698 10.185 2.79349C10.1212 2.82 10.0668 2.86479 10.0285 2.92221C9.99017 2.97964 9.96973 3.04712 9.96973 3.11615C9.97001 3.20911 10.0072 3.29815 10.0731 3.36368C10.1391 3.42922 10.2283 3.46588 10.3213 3.4656L10.3213 3.4656ZM9.10254 9.05688C9.03352 9.05729 8.96616 9.07814 8.90897 9.11679C8.85178 9.15544 8.80731 9.21017 8.78119 9.27406C8.75506 9.33795 8.74844 9.40815 8.76216 9.4758C8.77588 9.54345 8.80933 9.60552 8.85828 9.65418C8.90724 9.70284 8.96951 9.73592 9.03724 9.74923C9.10497 9.76254 9.17513 9.7555 9.23886 9.72899C9.3026 9.70248 9.35705 9.65769 9.39536 9.60026C9.43366 9.54284 9.45411 9.47536 9.45411 9.40633C9.45382 9.31337 9.41663 9.22433 9.3507 9.1588C9.28477 9.09326 9.1955 9.0566 9.10254 9.05688L9.10254 9.05688ZM9.05567 12.9242C8.98664 12.9246 8.91928 12.9454 8.86209 12.9841C8.8049 13.0227 8.76044 13.0775 8.73431 13.1414C8.70818 13.2052 8.70156 13.2754 8.71528 13.3431C8.729 13.4107 8.76245 13.4728 8.81141 13.5215C8.86036 13.5701 8.92264 13.6032 8.99037 13.6165C9.0581 13.6298 9.12826 13.6228 9.19199 13.5963C9.25572 13.5698 9.31018 13.525 9.34848 13.4676C9.38679 13.4101 9.40723 13.3427 9.40723 13.2736C9.40695 13.1807 9.36975 13.0916 9.30382 13.0261C9.23789 12.9606 9.14863 12.9239 9.05567 12.9242L9.05567 12.9242ZM10.7197 20.1229C10.7201 20.0533 10.6999 19.9851 10.6615 19.9271C10.6231 19.869 10.5684 19.8236 10.5042 19.7966C10.44 19.7697 10.3692 19.7624 10.3009 19.7758C10.2325 19.7891 10.1697 19.8224 10.1203 19.8715C10.0709 19.9206 10.0372 19.9832 10.0235 20.0515C10.0098 20.1197 10.0166 20.1905 10.0432 20.2549C10.0697 20.3193 10.1148 20.3743 10.1726 20.413C10.2305 20.4517 10.2985 20.4724 10.3682 20.4724C10.4611 20.4727 10.5504 20.436 10.6163 20.3705C10.6823 20.305 10.7195 20.2159 10.7197 20.1229L10.7197 20.1229ZM11.2119 7.70565C11.1429 7.70607 11.0755 7.72691 11.0183 7.76557C10.9612 7.80422 10.9167 7.85894 10.8906 7.92283C10.8644 7.98672 10.8578 8.05692 10.8715 8.12457C10.8853 8.19222 10.9187 8.25429 10.9677 8.30296C11.0166 8.35162 11.0789 8.38469 11.1466 8.39801C11.2143 8.41132 11.2845 8.40428 11.3482 8.37777C11.412 8.35126 11.4664 8.30646 11.5047 8.24904C11.543 8.19162 11.5635 8.12414 11.5635 8.05511C11.5632 7.96215 11.526 7.87311 11.4601 7.80757C11.3941 7.74204 11.3049 7.70538 11.2119 7.70565L11.2119 7.70565Z" fill="black" stroke="black" stroke-width="0.5"/>
</svg>
