<svg width="24" height="24" viewBox="0 0 24 24" fill="none" xmlns="http://www.w3.org/2000/svg">
<path d="M12 24C7 24 3 20 3 15C3 11 5.4 6.8 6.4 5.2C7 4.3 9.8 0 12 0C12.6 0 13 0.4 13 1C13 1.6 12.6 2 12 2C10.6 2.2 5 9.4 5 15C5 18.9 8.1 22 12 22C15.9 22 19 18.9 19 15C19 14.2 18.9 13.4 18.7 12.4C18.2 10.5 17.3 8.3 16 6.3C15.7 5.8 15.8 5.2 16.3 4.9C16.8 4.6 17.4 4.7 17.7 5.2C19.1 7.4 20.1 9.8 20.7 11.9C20.9 13 21 14.1 21 15C21 20 17 24 12 24Z" fill="black"/>
<path d="M15 9.9C14.7 9.9 14.4 9.8 14.2 9.6C12.1 7.2 11 4.2 11 1C11 0.4 11.4 0 12 0C12.6 0 13 0.4 13 1C13 3.7 14 6.3 15.7 8.3C16.1 8.7 16 9.3 15.6 9.7C15.5 9.8 15.2 9.9 15 9.9Z" fill="black"/>
<path d="M15 9.90001C14.7 9.90001 14.5 9.80001 14.3 9.60001C13.9 9.20001 13.9 8.60001 14.3 8.20001C15 7.40001 15.6 6.50001 15.8 5.50001C15.9 5.00001 16.5 4.70001 17 4.80001C17.5 4.90001 17.9 5.50001 17.7 6.00001C17.4 7.30001 16.6 8.60001 15.7 9.60001C15.5 9.80001 15.2 9.90001 15 9.90001ZM12 24C9.2 24 7 21.8 7 19C7 15.9 10.1 11 12 11C12.6 11 13 11.4 13 12C13 12.5 12.6 12.9 12.1 13C11.4 13.4 9 16.6 9 19C9 20.7 10.3 22 12 22C13.7 22 15 20.7 15 19C15 18.7 14.9 18.3 14.8 17.8C14.6 16.9 14.1 15.9 13.5 14.9C13.2 14.4 13.3 13.8 13.8 13.5C14.3 13.2 14.9 13.3 15.2 13.8C15.9 14.9 16.5 16.2 16.8 17.3C16.9 17.9 17 18.4 17 19C17 21.8 14.8 24 12 24Z" fill="black"/>
<path d="M13.5 17C13.2 17 12.9 16.9 12.7 16.7C11.6 15.3 11 13.7 11 12C11 11.4 11.4 11 12 11C12.6 11 13 11.4 13 12C13 13.2 13.4 14.4 14.2 15.3C14.6 15.7 14.5 16.3 14.1 16.7C14 16.9 13.7 17 13.5 17Z" fill="black"/>
<path d="M13.5 17C13.2 17 13 16.9 12.8 16.7C12.4 16.3 12.4 15.7 12.8 15.3C13.1 15 13.3 14.6 13.4 14.2C13.5 13.7 14.1 13.3 14.6 13.5C15.1 13.6 15.5 14.2 15.3 14.7C15.1 15.5 14.7 16.2 14.1 16.7C14 16.9 13.7 17 13.5 17Z" fill="black"/>
</svg>
