<svg width="24" height="24" viewBox="0 0 24 24" fill="none" xmlns="http://www.w3.org/2000/svg">
<g clip-path="url(#clip0_28_28)">
<path d="M23.2432 13.4776C23.2432 13.4146 23.2492 13.3523 23.247 13.2886C23.1382 9.33982 19.836 6.07057 15.885 6.00082C14.3985 5.96782 12.9292 6.39082 11.676 7.20607C10.6545 7.86982 9.50774 8.07607 8.53049 7.77007C8.02199 7.61107 7.49249 7.52107 6.95474 7.50307C5.39024 7.44682 3.80324 8.06032 2.63024 9.17782C1.45874 10.2938 0.773243 11.8366 0.750743 13.4108C0.750743 13.4363 0.753743 13.4618 0.753743 13.4873C0.753743 13.4918 0.750743 13.4956 0.750743 13.5001V15.6608C0.716993 18.0031 2.06174 20.1661 4.17674 21.1718C4.28099 21.2213 4.39049 21.2446 4.49849 21.2446C4.77899 21.2446 5.04749 21.0871 5.17649 20.8163C5.35424 20.4421 5.19524 19.9951 4.82099 19.8166C4.03049 19.4408 3.38324 18.8491 2.93624 18.1313C4.00724 19.0178 5.33999 19.5001 6.74999 19.5001C7.31549 19.5001 7.87499 19.4213 8.41349 19.2646C9.52649 18.9421 10.656 19.0958 11.5132 19.6853C12.7642 20.5456 14.229 21.0001 15.75 21.0001C17.6032 21.0001 19.3432 20.3303 20.7142 19.1131C20.5177 19.4018 20.2995 19.6778 20.0505 19.9336C18.9112 21.1051 17.3842 21.7501 15.75 21.7501C14.502 21.7501 12.6352 21.0428 11.6745 20.3821C11.004 19.9208 10.3852 19.7266 9.74174 19.7258C9.32774 19.7303 8.99549 20.0701 8.99999 20.4841C9.00449 20.8951 9.33974 21.2258 9.74999 21.2258C9.75224 21.2258 9.75524 21.2258 9.75824 21.2258C10.0335 21.2288 10.3162 21.2686 10.824 21.6173C11.991 22.4206 14.1525 23.2501 15.75 23.2501C17.7922 23.2501 19.7017 22.4438 21.126 20.9798C22.5495 19.5158 23.3032 17.5838 23.247 15.5596V13.5001C23.2477 13.4926 23.2432 13.4858 23.2432 13.4776ZM15.75 19.5001C14.5335 19.5001 13.3627 19.1371 12.3637 18.4493C11.5477 17.8876 10.5727 17.5988 9.55649 17.5988C9.04124 17.5988 8.51624 17.6731 7.99574 17.8238C7.59299 17.9408 7.17374 18.0001 6.74999 18.0001C5.53574 18.0001 4.39724 17.5238 3.54524 16.6583C2.69324 15.7928 2.23274 14.6476 2.25074 13.4326C2.26799 12.2416 2.77049 11.1166 3.66524 10.2638C4.54874 9.42307 5.72174 8.95657 6.90374 9.00232C7.30649 9.01657 7.70249 9.08332 8.08274 9.20257C9.48899 9.64207 11.0962 9.37282 12.4927 8.46382C13.494 7.81207 14.6625 7.47907 15.858 7.50082C19.0177 7.55632 21.66 10.1716 21.747 13.3291C21.792 14.9656 21.1897 16.5121 20.0505 17.6828C18.9112 18.8551 17.3842 19.5001 15.75 19.5001Z" fill="black"/>
<path d="M7.39351 20.2043C7.18126 20.2343 6.96526 20.25 6.75001 20.25C6.33601 20.25 6.00001 20.586 6.00001 21C6.00001 21.414 6.33601 21.75 6.75001 21.75C7.03576 21.75 7.32451 21.7298 7.60651 21.6885C8.01676 21.63 8.30101 21.2498 8.24251 20.8395C8.18401 20.43 7.80526 20.1495 7.39351 20.2043ZM7.13626 10.6073C6.78076 10.3943 6.32026 10.509 6.10726 10.8645L3.85726 14.6145C3.64426 14.97 3.75901 15.4305 4.11451 15.6435C4.23451 15.7155 4.36801 15.75 4.49926 15.75C4.75426 15.75 5.00251 15.6203 5.14276 15.3863L7.39276 11.6363C7.60651 11.2808 7.49101 10.8203 7.13626 10.6073ZM10.8975 9.86403C10.5473 9.64503 10.0845 9.75153 9.86401 10.1025L6.11401 16.1025C5.89501 16.4535 6.00151 16.9163 6.35251 17.136C6.47626 17.2133 6.61351 17.25 6.74926 17.25C6.99901 17.25 7.24351 17.1248 7.38601 16.8975L11.136 10.8975C11.3558 10.5465 11.2493 10.0838 10.8975 9.86403ZM15.3863 8.35728C15.0308 8.14353 14.5703 8.25903 14.3573 8.61453L9.85726 16.1145C9.64426 16.47 9.75901 16.9305 10.1145 17.1435C10.2345 17.2155 10.368 17.25 10.4993 17.25C10.7543 17.25 11.0025 17.1203 11.1428 16.8863L15.6428 9.38628C15.8565 9.03078 15.741 8.57028 15.3863 8.35728ZM18.3863 9.10728C18.03 8.89353 17.5703 9.00903 17.3573 9.36453L12.8573 16.8645C12.6443 17.22 12.759 17.6805 13.1145 17.8935C13.2345 17.9655 13.368 18 13.4993 18C13.7543 18 14.0025 17.8703 14.1428 17.6363L18.6428 10.1363C18.8565 9.78078 18.741 9.32028 18.3863 9.10728ZM20.622 11.349C20.2628 11.1435 19.8045 11.2688 19.599 11.628L16.599 16.878C16.3935 17.2373 16.5188 17.6955 16.878 17.901C16.995 17.9685 17.1233 18 17.2493 18C17.5095 18 17.763 17.8643 17.901 17.622L20.901 12.372C21.1065 12.0128 20.982 11.5545 20.622 11.349ZM6.83926 6.35478C6.97426 6.60678 7.23301 6.75003 7.50076 6.75003C7.62001 6.75003 7.74151 6.72153 7.85476 6.66078C8.22001 6.46503 8.35651 6.01053 8.16151 5.64528C7.79551 4.96353 7.98451 4.62678 8.29801 4.06878C8.67751 3.39378 9.25051 2.37303 8.06776 1.00803C7.79626 0.695281 7.32226 0.661531 7.00951 0.932281C6.69601 1.20453 6.66226 1.67778 6.93301 1.99128C7.42501 2.55903 7.33276 2.72328 6.98926 3.33453C6.62926 3.97653 6.08401 4.94703 6.83926 6.35478ZM11.3333 5.59428C11.4668 5.85228 11.7293 6.00003 12.0008 6.00003C12.1163 6.00003 12.234 5.97303 12.3443 5.91678C12.7125 5.72628 12.8565 5.27403 12.6668 4.90578C12.3915 4.37328 12.5085 4.17903 12.7643 3.75453C13.0853 3.22128 13.6238 2.32878 12.5858 1.03128C12.327 0.707281 11.8538 0.656281 11.532 0.914281C11.208 1.17303 11.1563 1.64478 11.415 1.96878C11.7998 2.44953 11.751 2.53053 11.4803 2.98053C11.178 3.48003 10.6733 4.31703 11.3333 5.59428ZM15.8378 4.85178C15.972 5.10603 16.2323 5.25003 16.5008 5.25003C16.6193 5.25003 16.74 5.22153 16.8518 5.16228C17.2178 4.96803 17.3565 4.51353 17.1623 4.14753C17.1165 4.06278 17.103 4.03728 17.2733 3.66228C17.5073 3.14628 17.898 2.28303 17.13 1.09278C16.9058 0.744781 16.4408 0.644281 16.0935 0.870031C15.7455 1.09428 15.6458 1.55853 15.8708 1.90653C16.1955 2.40903 16.1055 2.60778 15.9075 3.04353C15.7185 3.46053 15.4335 4.09053 15.8378 4.85178Z" fill="black"/>
</g>
<defs>
<clipPath id="clip0_28_28">
<rect width="24" height="24" fill="white"/>
</clipPath>
</defs>
</svg>
