<svg width="24" height="24" viewBox="0 0 24 24" fill="none" xmlns="http://www.w3.org/2000/svg">
<path d="M6.68628 21.2963C4.15503 21.2963 1.85628 20.01 0.89628 18.0262C0.0187797 16.2112 0.27003 13.7812 1.54878 11.6888C2.15194 10.7238 2.87803 9.84141 3.70878 9.06375C4.38589 8.46626 4.98217 7.783 5.48253 7.03125C6.00542 6.20131 6.60424 5.42172 7.27128 4.7025C7.92189 3.99029 8.70529 3.41198 9.57753 3C10.5315 2.53524 11.5802 2.29778 12.6413 2.30625C14.1789 2.3617 15.6585 2.90723 16.8641 3.8632C18.0697 4.81917 18.9381 6.1355 19.3425 7.62C19.4522 8.05631 19.52 8.50208 19.545 8.95125C19.5505 9.05071 19.5162 9.14826 19.4498 9.22246C19.3833 9.29665 19.2901 9.3414 19.1907 9.34687C19.0912 9.35234 18.9936 9.31808 18.9194 9.25162C18.8453 9.18517 18.8005 9.09196 18.795 8.9925C18.7732 8.59017 18.7129 8.19085 18.615 7.8C18.2537 6.47097 17.4762 5.2926 16.3964 4.43759C15.3167 3.58257 13.9915 3.09585 12.615 3.04875C11.6708 3.04231 10.7378 3.25406 9.88878 3.6675C9.10164 4.04438 8.39685 4.57328 7.81503 5.22375C7.17864 5.90558 6.60857 6.64642 6.11253 7.43625C5.5787 8.24621 4.93932 8.98143 4.21128 9.6225C3.42907 10.3507 2.74347 11.1762 2.17128 12.0787C1.27503 13.5525 0.641279 15.7987 1.56003 17.7037C2.56503 19.785 5.00253 20.6325 6.97128 20.5425C7.646 20.5087 8.31437 20.3955 8.96253 20.205C9.05801 20.1772 9.16064 20.1884 9.24784 20.2362C9.33505 20.284 9.39968 20.3645 9.42753 20.46C9.45538 20.5555 9.44416 20.6581 9.39633 20.7453C9.34851 20.8325 9.26801 20.8972 9.17253 20.925C8.46704 21.1337 7.73964 21.2596 7.00503 21.3L6.68628 21.2963Z" fill="black" stroke="black" stroke-width="0.5"/>
<path d="M11.0775 6.02999C11.0202 6.02985 10.9637 6.0166 10.9124 5.99125C10.861 5.9659 10.8162 5.92912 10.7812 5.88374C10.2375 5.16374 9.78373 5.19749 9.76498 5.20124C9.66657 5.2129 9.56755 5.18512 9.48955 5.12399C9.41155 5.06286 9.36093 4.97334 9.34873 4.87499C9.33556 4.77934 9.35978 4.6823 9.41636 4.60407C9.47294 4.52583 9.55752 4.47243 9.65248 4.45499C9.74248 4.45499 10.5562 4.33874 11.3775 5.42624C11.4376 5.50534 11.4638 5.60505 11.4504 5.70348C11.4371 5.80191 11.3852 5.89101 11.3062 5.95124C11.2408 6.00204 11.1603 6.02973 11.0775 6.02999ZM9.52873 9.70124C9.47051 9.70124 9.4131 9.68769 9.36103 9.66165C9.30896 9.63562 9.26366 9.59782 9.22873 9.55124C8.89268 9.08821 8.38719 8.77683 7.82248 8.68499C7.72697 8.67188 7.64018 8.62249 7.58013 8.54707C7.52008 8.47166 7.49137 8.37601 7.49998 8.27999C7.50843 8.1865 7.55164 8.09957 7.62107 8.03639C7.6905 7.9732 7.78111 7.93836 7.87498 7.93874C8.25912 7.99273 8.62856 8.12306 8.96153 8.32207C9.2945 8.52108 9.58426 8.78474 9.81373 9.09749C9.84447 9.13631 9.86721 9.18084 9.88064 9.22849C9.89408 9.27615 9.89795 9.32599 9.89202 9.37515C9.8861 9.42431 9.87049 9.47181 9.84611 9.5149C9.82173 9.558 9.78906 9.59584 9.74998 9.62624C9.6861 9.67416 9.60859 9.70044 9.52873 9.70124ZM15.3375 7.27124C15.2793 7.27124 15.2218 7.25769 15.1698 7.23165C15.1177 7.20562 15.0724 7.16782 15.0375 7.12124C14.9166 6.95293 14.7636 6.81026 14.5872 6.70148C14.4108 6.5927 14.2146 6.51997 14.01 6.48749C13.9105 6.47904 13.8185 6.43142 13.7542 6.35512C13.6898 6.27881 13.6584 6.18007 13.6669 6.08062C13.6753 5.98116 13.7229 5.88914 13.7992 5.82479C13.8755 5.76044 13.9743 5.72904 14.0737 5.73749C14.3829 5.78118 14.6802 5.8863 14.9481 6.04667C15.216 6.20703 15.4492 6.41939 15.6337 6.67124C15.6938 6.75034 15.72 6.85005 15.7067 6.94848C15.6933 7.04691 15.6415 7.13601 15.5625 7.19624C15.4976 7.24493 15.4186 7.27124 15.3375 7.27124ZM4.49998 13.1775C4.44176 13.1775 4.38435 13.1639 4.33228 13.1379C4.28021 13.1119 4.23491 13.0741 4.19998 13.0275C4.07881 12.8595 3.92568 12.717 3.74936 12.6083C3.57305 12.4995 3.37701 12.4266 3.17248 12.3937C3.07302 12.3853 2.981 12.3377 2.91665 12.2614C2.8523 12.1851 2.8209 12.0863 2.82936 11.9869C2.83781 11.8874 2.88543 11.7954 2.96173 11.731C3.03803 11.6667 3.13677 11.6353 3.23623 11.6437C3.54505 11.6872 3.8421 11.7918 4.10997 11.9515C4.37785 12.1112 4.61116 12.3227 4.79623 12.5737C4.82656 12.613 4.84879 12.6579 4.86164 12.7059C4.87448 12.7538 4.87768 12.8038 4.87105 12.853C4.86442 12.9022 4.8481 12.9496 4.82303 12.9924C4.79795 13.0352 4.76463 13.0726 4.72498 13.1025C4.66007 13.1512 4.58112 13.1775 4.49998 13.1775ZM12.75 21.7012C12.1556 21.7041 11.5621 21.6552 10.9762 21.555C9.63519 21.3469 8.38332 20.7542 7.37248 19.8487C6.61638 19.1422 6.06344 18.246 5.77119 17.2533C5.47895 16.2607 5.45809 15.2078 5.71077 14.2043C5.96346 13.2008 6.48047 12.2834 7.20799 11.5475C7.93551 10.8116 8.84696 10.2841 9.84748 10.02C10.6623 9.84143 11.4962 9.76459 12.33 9.79124C13.365 9.79124 14.34 9.77249 15.2175 9.37499C16.7175 8.68874 18.3487 8.15624 20.1862 8.87249C21.0272 9.21051 21.7718 9.75082 22.354 10.4455C22.9362 11.1402 23.338 11.9678 23.5237 12.855C23.9437 14.9887 22.995 17.4112 21.1012 19.0312C19.6012 20.3212 17.5087 21.165 14.91 21.5362C14.1947 21.6413 13.4729 21.6965 12.75 21.7012ZM18.3975 9.27749C17.3968 9.32877 16.4187 9.59344 15.5287 10.0537C14.5087 10.5225 13.4025 10.5337 12.3375 10.5412C11.5659 10.5154 10.7939 10.5834 10.0387 10.7437C9.16746 10.9733 8.3736 11.4321 7.73968 12.0724C7.10577 12.7127 6.65494 13.5111 6.43407 14.3846C6.2132 15.2581 6.23036 16.1749 6.48376 17.0395C6.73716 17.9041 7.21755 18.6851 7.87498 19.3012C8.78265 20.1021 9.90273 20.623 11.1 20.8012C12.326 20.9887 13.5739 20.9811 14.7975 20.7787C17.25 20.4262 19.2037 19.6537 20.6062 18.4462C22.2975 16.9987 23.1487 14.8575 22.7775 12.9862C22.6183 12.2225 22.2733 11.5098 21.7729 10.9113C21.2725 10.3128 20.6322 9.84694 19.9087 9.55499C19.4268 9.36866 18.9142 9.27453 18.3975 9.27749Z" fill="black" stroke="black" stroke-width="0.5"/>
<path d="M19.1775 12.75C19.078 12.75 18.9826 12.7105 18.9123 12.6402C18.842 12.5698 18.8025 12.4744 18.8025 12.375C18.8099 11.8044 18.5931 11.2537 18.1987 10.8412C18.1616 10.8084 18.1313 10.7685 18.1096 10.7239C18.0879 10.6793 18.0754 10.6308 18.0726 10.5812C18.0698 10.5317 18.0768 10.4821 18.0933 10.4354C18.1099 10.3886 18.1355 10.3455 18.1687 10.3087C18.2349 10.2348 18.3278 10.1901 18.4269 10.1844C18.526 10.1788 18.6233 10.2127 18.6975 10.2787C18.9723 10.5537 19.1895 10.8807 19.3363 11.2407C19.4831 11.6006 19.5566 11.9863 19.5525 12.375C19.5525 12.4744 19.513 12.5698 19.4426 12.6402C19.3723 12.7105 19.2769 12.75 19.1775 12.75ZM18.3225 17.325C18.223 17.325 18.1276 17.2855 18.0573 17.2152C17.987 17.1448 17.9475 17.0494 17.9475 16.95C17.9531 16.3804 17.7381 15.8308 17.3475 15.4162C17.3081 15.3845 17.2755 15.3451 17.2517 15.3004C17.2279 15.2557 17.2134 15.2067 17.2091 15.1562C17.2048 15.1058 17.2107 15.055 17.2265 15.0069C17.2424 14.9588 17.2678 14.9145 17.3012 14.8765C17.3346 14.8384 17.3754 14.8076 17.4211 14.7858C17.4668 14.764 17.5164 14.7516 17.567 14.7495C17.6176 14.7474 17.6681 14.7555 17.7154 14.7734C17.7627 14.7914 17.806 14.8187 17.8425 14.8537C18.1175 15.1277 18.3349 15.4541 18.4818 15.8135C18.6286 16.1728 18.702 16.558 18.6975 16.9462C18.6975 17.0457 18.658 17.1411 18.5877 17.2114C18.5173 17.2817 18.4219 17.3212 18.3225 17.3212V17.325ZM14.6512 21.5212C14.6176 21.5249 14.5836 21.5249 14.55 21.5212C14.5024 21.5082 14.4579 21.486 14.419 21.4557C14.3801 21.4255 14.3475 21.3879 14.3231 21.345C14.2987 21.3022 14.283 21.255 14.2769 21.2061C14.2708 21.1571 14.2744 21.1075 14.2875 21.06C14.3698 20.7889 14.3976 20.5041 14.3693 20.2222C14.341 19.9403 14.2571 19.6668 14.1225 19.4175C14.0942 19.3746 14.075 19.3265 14.0661 19.2759C14.0572 19.2253 14.0588 19.1735 14.0708 19.1236C14.0827 19.0737 14.1048 19.0267 14.1356 18.9857C14.1664 18.9446 14.2054 18.9104 14.25 18.885C14.3333 18.8326 14.4338 18.815 14.5299 18.8361C14.626 18.8571 14.71 18.9151 14.7637 18.9975C14.9563 19.3357 15.0784 19.7094 15.1229 20.0961C15.1674 20.4827 15.1332 20.8744 15.0225 21.2475C15 21.328 14.9512 21.3986 14.8839 21.4482C14.8167 21.4978 14.7348 21.5235 14.6512 21.5212ZM11.5275 14.8987C11.428 14.8987 11.3326 14.8592 11.2623 14.7889C11.192 14.7186 11.1525 14.6232 11.1525 14.5237C11.1579 13.9531 10.943 13.4024 10.5525 12.9862C10.4828 12.9193 10.4416 12.828 10.4376 12.7315C10.4335 12.635 10.4669 12.5406 10.5307 12.468C10.5946 12.3955 10.6839 12.3504 10.7802 12.3422C10.8765 12.3339 10.9722 12.3631 11.0475 12.4237C11.3225 12.6986 11.5398 13.0256 11.6866 13.3855C11.8334 13.7455 11.9068 14.1312 11.9025 14.52C11.9025 14.6194 11.863 14.7148 11.7927 14.7852C11.7223 14.8555 11.6269 14.895 11.5275 14.895V14.8987Z" fill="black" stroke="black" stroke-width="0.5"/>
</svg>
