<svg width="24" height="24" viewBox="0 0 24 24" fill="none" xmlns="http://www.w3.org/2000/svg">
<g clip-path="url(#clip0_29_93)">
<path d="M1.14 23.9999H6.36C6.65868 24.0028 6.94633 23.8872 7.15998 23.6784C7.37363 23.4697 7.49589 23.1848 7.5 22.8862V9.78366C7.50059 9.28368 7.3918 8.78964 7.18125 8.33616C6.50813 6.88116 6.20063 5.68491 6.21563 4.57303C6.21691 4.46659 6.19683 4.36096 6.15657 4.26241C6.11631 4.16386 6.0567 4.07439 5.98125 3.99928C5.83657 3.85278 5.643 3.76467 5.4375 3.75178V2.90616C5.43473 2.76066 5.39369 2.61846 5.31852 2.49386C5.24334 2.36926 5.13668 2.26666 5.00926 2.19636L4.63092 0.661833C4.58712 0.472456 4.48007 0.303671 4.32742 0.183332C4.17477 0.0629932 3.98566 -0.00170746 3.79129 -9.25567e-05H3.7912C3.59681 -0.00169795 3.40768 0.0630027 3.25501 0.183337C3.10234 0.303671 2.99524 0.47245 2.95139 0.661833L2.58463 2.14968C2.43356 2.21148 2.30374 2.31591 2.21103 2.45024C2.11831 2.58458 2.0667 2.74299 2.0625 2.90616V3.75178C1.857 3.76467 1.66344 3.85278 1.51875 3.99928C1.44331 4.07439 1.38369 4.16386 1.34343 4.26241C1.30317 4.36096 1.28309 4.46658 1.28438 4.57303C1.29938 5.68491 0.991877 6.88116 0.318752 8.33616C0.108208 8.78964 -0.00058526 9.28368 2.36784e-06 9.78366V22.8862C0.00411276 23.1848 0.126374 23.4697 0.340027 23.6784C0.55368 23.8872 0.841323 24.0028 1.14 23.9999ZM3.6796 0.841276C3.68478 0.815504 3.69872 0.792319 3.71905 0.775662C3.73939 0.759005 3.76487 0.749904 3.79116 0.749904C3.81744 0.749904 3.84292 0.759005 3.86326 0.775662C3.88359 0.792319 3.89753 0.815504 3.90271 0.841276L4.20378 2.06241H3.37858L3.6796 0.841276ZM2.8125 2.90616C2.8125 2.87241 2.87813 2.81241 2.985 2.81241H4.515C4.62188 2.81241 4.6875 2.87241 4.6875 2.90616V3.74991H2.8125V2.90616ZM0.750002 9.78366C0.74991 9.39253 0.835007 9.00607 0.999377 8.65116C1.37328 7.86794 1.66048 7.04621 1.85584 6.20059H4.33613C4.43558 6.20059 4.53097 6.16108 4.60129 6.09075C4.67162 6.02043 4.71113 5.92505 4.71113 5.82559C4.71113 5.72613 4.67162 5.63075 4.60129 5.56042C4.53097 5.4901 4.43558 5.45059 4.33613 5.45059H1.98509C2.02072 5.15633 2.03719 4.86006 2.03438 4.56366C2.03435 4.55656 2.03583 4.54955 2.03875 4.54308C2.04166 4.53661 2.04592 4.53084 2.05125 4.52616C2.06799 4.51016 2.08999 4.50082 2.11313 4.49991H5.38688C5.41001 4.50082 5.43202 4.51016 5.44875 4.52616C5.45408 4.53084 5.45835 4.53661 5.46126 4.54308C5.46417 4.54955 5.46566 4.55656 5.46563 4.56366C5.45063 5.79178 5.77875 7.08928 6.50063 8.65116C6.665 9.00607 6.75009 9.39253 6.75 9.78366V19.1249H0.750002V9.78366ZM0.750002 19.8749H6.75V20.6249H0.750002V19.8749ZM0.750002 21.3749H6.75V22.8862C6.74639 22.9861 6.70331 23.0805 6.6302 23.1487C6.55709 23.2168 6.45992 23.2533 6.36 23.2499H1.14C1.04008 23.2533 0.942914 23.2168 0.869804 23.1487C0.796693 23.0805 0.75361 22.9861 0.750002 22.8862V21.3749Z" fill="black" stroke="black" stroke-width="0.2"/>
<path d="M3.75 8.25C3.30499 8.25 2.86998 8.38196 2.49997 8.62919C2.12996 8.87643 1.84157 9.22783 1.67127 9.63896C1.50097 10.0501 1.45642 10.5025 1.54323 10.939C1.63005 11.3754 1.84434 11.7763 2.15901 12.091C2.47368 12.4057 2.87459 12.62 3.31105 12.7068C3.74751 12.7936 4.19991 12.749 4.61104 12.5787C5.02217 12.4084 5.37357 12.12 5.62081 11.75C5.86804 11.38 6 10.945 6 10.5C5.99933 9.90347 5.76207 9.33156 5.34025 8.90975C4.91844 8.48793 4.34653 8.25067 3.75 8.25ZM3.75 12C3.45333 12 3.16332 11.912 2.91665 11.7472C2.66997 11.5824 2.47771 11.3481 2.36418 11.074C2.25065 10.7999 2.22095 10.4983 2.27882 10.2074C2.3367 9.91639 2.47956 9.64912 2.68934 9.43934C2.89912 9.22956 3.16639 9.0867 3.45737 9.02882C3.74834 8.97094 4.04994 9.00065 4.32403 9.11418C4.59812 9.22771 4.83238 9.41997 4.99721 9.66664C5.16203 9.91332 5.25 10.2033 5.25 10.5C5.24955 10.8977 5.09136 11.279 4.81016 11.5602C4.52895 11.8414 4.14769 11.9995 3.75 12ZM23.625 16.125H22.2592C22.226 15.852 22.1079 15.5964 21.9214 15.3942C21.721 15.1879 21.4643 15.0452 21.1834 14.9837C21.1551 14.5295 20.9573 14.1025 20.6293 13.7871C20.2925 13.493 19.8702 13.3149 19.4246 13.2788C19.3677 12.9474 19.1351 12.5087 18.4053 12.1349C17.7099 11.779 17.9757 11.0949 18.035 10.9636C18.0633 10.9032 18.0749 10.8363 18.0688 10.7699C18.0626 10.7035 18.0388 10.6399 17.9999 10.5857C17.9609 10.5316 17.9082 10.4888 17.8472 10.4617C17.7862 10.4347 17.7191 10.4245 17.6528 10.4321C17.1268 10.4849 16.6277 10.6901 16.2166 11.0225C15.8055 11.3549 15.5004 11.8001 15.3386 12.3034C14.9851 12.2009 14.6076 12.2173 14.2644 12.3503C13.7729 12.5734 13.3746 12.9607 13.1377 13.4456C12.0549 13.6 11.3181 14.0035 10.946 14.647C10.7001 15.0982 10.6251 15.6229 10.7347 16.125H9C8.90055 16.125 8.80517 16.1645 8.73484 16.2348C8.66452 16.3052 8.62501 16.4005 8.625 16.5C8.625 20.5322 12.0736 23.8125 16.3125 23.8125C20.5514 23.8125 24 20.5322 24 16.5C24 16.4005 23.9605 16.3052 23.8902 16.2348C23.8198 16.1645 23.7245 16.125 23.625 16.125ZM17.1912 11.309C17.1638 11.6176 17.233 11.9272 17.3893 12.1948C17.5455 12.4624 17.7811 12.6748 18.0634 12.8026C18.2922 12.9023 18.4895 13.0623 18.6343 13.2655C17.0193 13.2331 16.3019 12.8909 16.011 12.6795C16.0865 12.3745 16.2327 12.0916 16.4377 11.8535C16.6427 11.6155 16.9008 11.4289 17.1912 11.309ZM14.5374 13.0488C14.6685 13.0025 14.8076 12.9832 14.9464 12.9919C15.0852 13.0007 15.2208 13.0374 15.3451 13.0999C15.6849 13.4551 16.5847 14.0184 18.8757 14.0184C18.9692 14.0184 19.0654 14.0175 19.1636 14.0156C19.1679 14.0155 19.1718 14.0144 19.176 14.0141C19.518 14.0074 19.8514 14.1212 20.1178 14.3357C20.295 14.5114 20.405 14.7436 20.4286 14.9921C16.9297 15.3249 14.6142 14.124 13.8747 13.666C14.0249 13.3955 14.2569 13.1795 14.5374 13.0488ZM11.5952 15.0225C11.851 14.5801 12.424 14.2997 13.2917 14.184C13.8228 14.5489 15.8892 15.8027 19.1984 15.8027C19.7673 15.8017 20.3356 15.7655 20.9 15.6943C21.0773 15.7104 21.2441 15.7852 21.3741 15.9069C21.4306 15.9692 21.4716 16.0439 21.4939 16.125H11.503C11.3901 15.7594 11.4232 15.3643 11.5952 15.0225ZM16.3125 23.0625C13.3225 23.0625 10.7688 21.2636 9.79577 18.75H22.8292C21.8562 21.2636 19.3025 23.0625 16.3125 23.0625ZM23.0651 18H9.55986C9.46761 17.6311 9.40947 17.2545 9.38617 16.875H23.2388C23.2155 17.2545 23.1574 17.6311 23.0651 18Z" fill="black" stroke="black" stroke-width="0.2"/>
<path d="M14.2961 21.9957C14.3907 22.0264 14.4935 22.0182 14.5821 21.973C14.6707 21.9279 14.7377 21.8493 14.7684 21.7548C14.7991 21.6602 14.791 21.5573 14.7459 21.4687C14.7007 21.3801 14.6223 21.3131 14.5277 21.2823C13.5075 20.9574 12.6062 20.3381 11.9372 19.5022C11.9066 19.4636 11.8687 19.4315 11.8257 19.4075C11.7826 19.3836 11.7353 19.3684 11.6864 19.3628C11.6375 19.3572 11.5879 19.3612 11.5406 19.3747C11.4932 19.3883 11.449 19.411 11.4104 19.4416C11.3718 19.4722 11.3397 19.5101 11.3158 19.5531C11.2918 19.5962 11.2766 19.6435 11.271 19.6924C11.2654 19.7413 11.2694 19.7909 11.283 19.8382C11.2965 19.8856 11.3192 19.9298 11.3498 19.9684C12.1104 20.92 13.1355 21.6254 14.2961 21.9957Z" fill="black" stroke="black" stroke-width="0.2"/>
</g>
<defs>
<clipPath id="clip0_29_93">
<rect width="24" height="24" fill="white"/>
</clipPath>
</defs>
</svg>
