<svg width="24" height="24" viewBox="0 0 24 24" fill="none" xmlns="http://www.w3.org/2000/svg">
<path d="M16.1288 17.7825C15.1013 17.7825 14.1038 17.6175 13.1625 17.295C12.9856 17.2341 12.8401 17.1056 12.7579 16.9376C12.6756 16.7696 12.6633 16.5758 12.7238 16.3988C12.8513 16.0313 13.2525 15.8325 13.62 15.96C14.4113 16.2338 15.2588 16.3688 16.1288 16.3688C19.5863 16.3688 22.3575 14.1113 22.5788 11.115C22.7025 9.39752 21.6863 8.07002 19.47 7.05752C18.8363 6.76502 18.105 6.50627 17.295 6.28502C16.92 6.18377 16.6988 5.79377 16.8 5.41877C16.905 5.04377 17.2913 4.82252 17.6663 4.92377C18.5475 5.16752 19.35 5.45252 20.055 5.77502C23.5125 7.35752 24.0975 9.60752 23.985 11.2163C23.7113 14.9625 20.3325 17.7825 16.1288 17.7825ZM9.94502 8.49002C9.55502 8.49002 9.23627 8.17502 9.23627 7.78502C9.23627 7.60502 9.30377 7.44002 9.41627 7.31252C10.1438 6.38252 11.2388 5.70752 12.675 5.31002C13.05 5.20877 13.44 5.42627 13.545 5.80127C13.65 6.17627 13.4288 6.56627 13.0538 6.67127C11.8838 6.99377 11.0513 7.50002 10.5075 8.21252C10.3725 8.38502 10.1663 8.49002 9.94502 8.49002Z" fill="black"/>
<path d="M13.4775 10.8937C13.1738 10.8937 12.8925 10.7025 12.7988 10.3987C12.7875 10.3575 12.7425 10.2075 12.72 9.96375C12.66 9.39375 12.7163 8.33625 13.5525 7.03875C12.7463 6.7875 12.1763 6.41625 11.8538 5.9325C11.475 5.3625 11.5725 4.84875 11.5988 4.75125C11.6363 4.605 11.7188 4.47 11.835 4.37625C11.895 4.3275 13.2413 3.25875 15.555 4.19625C16.8075 2.76 17.82 2.5275 17.94 2.505C18.0225 2.49 18.1088 2.48625 18.195 2.50125C18.525 2.5575 18.975 2.805 19.155 3.315C19.3388 3.82875 19.2 4.4325 18.72 5.1675C19.2525 5.3325 19.7325 5.55375 20.1525 5.8275C21.105 6.44625 21.4313 7.13625 21.465 7.21125C21.54 7.38375 21.5475 7.57875 21.4763 7.755C21.4088 7.93125 21.27 8.07 21.0975 8.145C21.015 8.1825 19.17 8.94375 16.845 8.05125C15.8325 9.8775 14.3175 10.6125 13.8375 10.8075C13.7325 10.8487 13.68 10.8637 13.68 10.8637C13.6088 10.8862 13.5413 10.8937 13.4775 10.8937ZM13.1513 5.2875C13.3838 5.48625 13.8825 5.7375 14.8838 5.89125C15.1388 5.92875 15.3525 6.105 15.4425 6.34875C15.5325 6.5925 15.48 6.8625 15.3075 7.0575C14.6363 7.8225 14.3325 8.48625 14.2013 8.985C14.7488 8.58 15.4088 7.90875 15.855 6.855C15.93 6.675 16.08 6.53625 16.2638 6.46875C16.3547 6.43517 16.4517 6.42083 16.5485 6.42664C16.6454 6.43245 16.7399 6.45828 16.8263 6.5025C17.8575 7.0275 18.7913 7.11 19.4625 7.06875C19.4363 7.05 19.4063 7.03125 19.38 7.0125C18.8513 6.6675 18.1763 6.4275 17.3775 6.3075C17.1225 6.27 16.9088 6.09375 16.8225 5.85C16.7325 5.60625 16.785 5.33625 16.9575 5.14125C17.34 4.70625 17.5538 4.3875 17.6738 4.17C17.3325 4.39875 16.8563 4.8 16.3163 5.4975C16.11 5.7675 15.7387 5.85 15.4388 5.69625C14.3513 5.14125 13.5863 5.175 13.1513 5.2875Z" fill="black"/>
<path d="M6.59999 21.51C4.97249 21.51 3.43499 20.9513 2.28749 19.8075C0.0824893 17.6025 -0.255011 15.2288 1.25624 12.5513C1.44749 12.2138 1.87874 12.0938 2.21999 12.285C2.56124 12.4763 2.67749 12.9075 2.48624 13.2488C1.27874 15.3825 1.51874 17.0438 3.28499 18.81C5.31374 20.835 9.00749 20.4413 11.52 17.9288C12.0262 17.4225 12.4462 16.8713 12.7725 16.2863C13.8487 14.3775 13.9162 12.2138 12.9525 10.5C12.9037 10.41 12.8662 10.3425 12.8212 10.2713C12.6825 10.05 12.5287 9.84375 12.3637 9.6525C11.7262 8.91 10.9237 8.5275 9.91124 8.48625C9.14624 8.45625 8.27249 8.62125 7.30874 8.9775C6.65624 9.2175 5.95124 9.5475 5.20874 9.97125C4.87124 10.1625 4.43999 10.0463 4.24499 9.70875C4.05374 9.37125 4.16999 8.94 4.50749 8.745C5.31749 8.28375 6.09374 7.91625 6.81749 7.65375C7.95374 7.23 9.00749 7.03125 9.96374 7.07625C11.37 7.13625 12.5362 7.69125 13.4287 8.73375C13.635 8.97375 13.83 9.24 14.01 9.5175C14.0737 9.6225 14.1337 9.72375 14.19 9.82875C15.3825 11.955 15.315 14.6325 13.9987 16.9725C13.6125 17.67 13.11 18.3263 12.5137 18.9263C10.815 20.6325 8.63999 21.51 6.59999 21.51Z" fill="black"/>
<path d="M5.27253 16.1475C5.16378 16.1475 5.05503 16.1213 4.95378 16.0725C4.89003 16.0388 3.58128 15.3525 3.10128 13.155C2.35128 13.5488 1.68753 13.6913 1.11753 13.575C0.446281 13.44 0.15378 13.005 0.10128 12.9188C0.0225305 12.7875 -0.0112195 12.6375 0.00378049 12.4875C0.0112805 12.4088 0.20628 10.7025 2.50503 9.73127C2.37378 7.83002 2.92503 6.94877 2.99253 6.84752C3.04128 6.77627 3.10128 6.71627 3.17253 6.66752C3.44628 6.47252 3.94128 6.33002 4.42878 6.56627C4.92003 6.80252 5.25003 7.32377 5.43003 8.18252C7.38378 7.16252 8.75253 7.66877 8.82003 7.69127C8.99628 7.75877 9.13878 7.89377 9.21378 8.07002C9.28878 8.24252 9.29253 8.43752 9.22128 8.61377C9.18753 8.70002 8.42628 10.5413 6.15003 11.55C6.82503 13.9088 5.94753 15.6863 5.90628 15.765C5.84485 15.8799 5.75355 15.9761 5.64201 16.0434C5.53046 16.1107 5.40281 16.1467 5.27253 16.1475ZM3.64878 11.265C3.75003 11.265 3.85128 11.2875 3.94878 11.3325C4.18128 11.4413 4.33878 11.67 4.35378 11.9288C4.41753 12.9488 4.67253 13.635 4.93503 14.0813C5.03628 13.41 5.03253 12.4688 4.60128 11.3963C4.53003 11.2163 4.53378 11.01 4.61628 10.8338C4.69878 10.6575 4.85253 10.5225 5.03628 10.4625C6.14253 10.1025 6.86253 9.50252 7.30503 8.99252C6.79128 9.08252 6.10128 9.33377 5.28753 9.93377C5.18545 10.0088 5.06503 10.055 4.93894 10.0673C4.81285 10.0797 4.68575 10.0579 4.57101 10.0042C4.45627 9.95048 4.35813 9.86683 4.28691 9.76205C4.21568 9.65726 4.17401 9.53523 4.16628 9.40877C4.12878 8.82752 4.05753 8.45252 3.98628 8.21627C3.90753 8.61752 3.85503 9.24002 3.96753 10.1138C4.01253 10.4513 3.81003 10.77 3.48753 10.875C2.31378 11.25 1.80003 11.8163 1.57503 12.1988C1.87878 12.1763 2.41128 12 3.22878 11.4C3.35628 11.31 3.50253 11.265 3.64878 11.265Z" fill="black"/>
</svg>
